HIERARCHY
ROOT mixamorig:Hips
{
	OFFSET -0.000008 104.274872 1.554316
	CHANNELS 6 Xposition Yposition Zposition Xrotation Yrotation Zrotation
	JOINT mixamorig:Spine
	{
		OFFSET -0.000005 10.181595 0.131519
		CHANNELS 6 Xposition Yposition Zposition Xrotation Yrotation Zrotation
		JOINT mixamorig:Spine1
		{
			OFFSET -0.000000 9.893959 -1.470707
			CHANNELS 6 Xposition Yposition Zposition Xrotation Yrotation Zrotation
			JOINT mixamorig:Spine2
			{
				OFFSET -0.000000 9.220757 -1.370641
				CHANNELS 6 Xposition Yposition Zposition Xrotation Yrotation Zrotation
				JOINT mixamorig:Neck
				{
					OFFSET 0.000001 16.740417 -2.049036
					CHANNELS 6 Xposition Yposition Zposition Xrotation Yrotation Zrotation
					JOINT mixamorig:Head
					{
						OFFSET 0.000000 9.617874 1.685006
						CHANNELS 6 Xposition Yposition Zposition Xrotation Yrotation Zrotation
						JOINT mixamorig:HeadTop_End
						{
							OFFSET 0.000002 22.037354 7.501101
							CHANNELS 6 Xposition Yposition Zposition Xrotation Yrotation Zrotation
							End Site
							{
								OFFSET 0.000168 2310.654297 -282.823242
							}
						}
					}
				}
				JOINT mixamorig:RightShoulder
				{
					OFFSET -4.569970 11.014908 -2.160885
					CHANNELS 6 Xposition Yposition Zposition Xrotation Yrotation Zrotation
					JOINT mixamorig:RightArm
					{
						OFFSET -10.592851 -0.524811 -2.232101
						CHANNELS 6 Xposition Yposition Zposition Xrotation Yrotation Zrotation
						JOINT mixamorig:RightForeArm
						{
							OFFSET -27.841511 0.000031 -0.000004
							CHANNELS 6 Xposition Yposition Zposition Xrotation Yrotation Zrotation
							JOINT mixamorig:RightHand
							{
								OFFSET -28.328831 -0.000015 0.000015
								CHANNELS 6 Xposition Yposition Zposition Xrotation Yrotation Zrotation
								JOINT mixamorig:RightHandThumb1
								{
									OFFSET -2.464806 -1.573990 2.681852
									CHANNELS 6 Xposition Yposition Zposition Xrotation Yrotation Zrotation
									JOINT mixamorig:RightHandThumb2
									{
										OFFSET -3.215179 -1.872803 1.924282
										CHANNELS 6 Xposition Yposition Zposition Xrotation Yrotation Zrotation
										JOINT mixamorig:RightHandThumb3
										{
											OFFSET -2.654831 -1.527969 1.512609
											CHANNELS 6 Xposition Yposition Zposition Xrotation Yrotation Zrotation
											JOINT mixamorig:RightHandThumb4
											{
												OFFSET -2.018814 -1.152008 1.108052
												CHANNELS 6 Xposition Yposition Zposition Xrotation Yrotation Zrotation
												End Site
												{
													OFFSET -188.809540 -114.533607 132.431396
												}
											}
										}
									}
								}
								JOINT mixamorig:RightHandIndex1
								{
									OFFSET -9.108284 -0.517868 2.259835
									CHANNELS 6 Xposition Yposition Zposition Xrotation Yrotation Zrotation
									JOINT mixamorig:RightHandIndex2
									{
										OFFSET -3.699989 0.000000 0.001215
										CHANNELS 6 Xposition Yposition Zposition Xrotation Yrotation Zrotation
										JOINT mixamorig:RightHandIndex3
										{
											OFFSET -2.850006 0.000031 -0.000522
											CHANNELS 6 Xposition Yposition Zposition Xrotation Yrotation Zrotation
											JOINT mixamorig:RightHandIndex4
											{
												OFFSET -2.772186 -0.000015 -0.000020
												CHANNELS 6 Xposition Yposition Zposition Xrotation Yrotation Zrotation
												End Site
												{
													OFFSET -277.218445 0.000000 -0.050231
												}
											}
										}
									}
								}
								JOINT mixamorig:RightHandMiddle1
								{
									OFFSET -9.532516 -0.000031 -0.000023
									CHANNELS 6 Xposition Yposition Zposition Xrotation Yrotation Zrotation
									JOINT mixamorig:RightHandMiddle2
									{
										OFFSET -3.700005 -0.000015 0.003713
										CHANNELS 6 Xposition Yposition Zposition Xrotation Yrotation Zrotation
										JOINT mixamorig:RightHandMiddle3
										{
											OFFSET -2.949974 0.000015 -0.002054
											CHANNELS 6 Xposition Yposition Zposition Xrotation Yrotation Zrotation
											JOINT mixamorig:RightHandMiddle4
											{
												OFFSET -2.946640 0.000000 -0.000156
												CHANNELS 6 Xposition Yposition Zposition Xrotation Yrotation Zrotation
												End Site
												{
													OFFSET -294.664337 0.000000 -0.113670
												}
											}
										}
									}
								}
								JOINT mixamorig:RightHandRing1
								{
									OFFSET -9.103600 -0.043076 -1.865134
									CHANNELS 6 Xposition Yposition Zposition Xrotation Yrotation Zrotation
									JOINT mixamorig:RightHandRing2
									{
										OFFSET -3.379288 0.000000 -0.001055
										CHANNELS 6 Xposition Yposition Zposition Xrotation Yrotation Zrotation
										JOINT mixamorig:RightHandRing3
										{
											OFFSET -2.889687 -0.000015 0.000379
											CHANNELS 6 Xposition Yposition Zposition Xrotation Yrotation Zrotation
											JOINT mixamorig:RightHandRing4
											{
												OFFSET -2.638809 -0.000015 0.000941
												CHANNELS 6 Xposition Yposition Zposition Xrotation Yrotation Zrotation
												End Site
												{
													OFFSET -263.880371 0.000000 0.516020
												}
											}
										}
									}
								}
								JOINT mixamorig:RightHandPinky1
								{
									OFFSET -8.076683 -0.486710 -3.806280
									CHANNELS 6 Xposition Yposition Zposition Xrotation Yrotation Zrotation
									JOINT mixamorig:RightHandPinky2
									{
										OFFSET -3.600014 -0.000015 -0.003747
										CHANNELS 6 Xposition Yposition Zposition Xrotation Yrotation Zrotation
										JOINT mixamorig:RightHandPinky3
										{
											OFFSET -2.099983 0.000000 -0.005739
											CHANNELS 6 Xposition Yposition Zposition Xrotation Yrotation Zrotation
											JOINT mixamorig:RightHandPinky4
											{
												OFFSET -2.115768 -0.000031 -0.003680
												CHANNELS 6 Xposition Yposition Zposition Xrotation Yrotation Zrotation
												End Site
												{
													OFFSET -211.577087 0.000000 -0.350686
												}
											}
										}
									}
								}
							}
						}
					}
				}
				JOINT mixamorig:LeftShoulder
				{
					OFFSET 4.570447 11.014725 -2.160855
					CHANNELS 6 Xposition Yposition Zposition Xrotation Yrotation Zrotation
					JOINT mixamorig:LeftArm
					{
						OFFSET 10.592371 -0.524597 -2.232119
						CHANNELS 6 Xposition Yposition Zposition Xrotation Yrotation Zrotation
						JOINT mixamorig:LeftForeArm
						{
							OFFSET 27.841532 -0.000031 0.000026
							CHANNELS 6 Xposition Yposition Zposition Xrotation Yrotation Zrotation
							JOINT mixamorig:LeftHand
							{
								OFFSET 28.328846 -0.000061 0.000022
								CHANNELS 6 Xposition Yposition Zposition Xrotation Yrotation Zrotation
								JOINT mixamorig:LeftHandThumb1
								{
									OFFSET 2.466141 -1.576172 2.681732
									CHANNELS 6 Xposition Yposition Zposition Xrotation Yrotation Zrotation
									JOINT mixamorig:LeftHandThumb2
									{
										OFFSET 3.217812 -1.872070 1.916482
										CHANNELS 6 Xposition Yposition Zposition Xrotation Yrotation Zrotation
										JOINT mixamorig:LeftHandThumb3
										{
											OFFSET 2.656029 -1.528778 1.514513
											CHANNELS 6 Xposition Yposition Zposition Xrotation Yrotation Zrotation
											JOINT mixamorig:LeftHandThumb4
											{
												OFFSET 2.020889 -1.154053 1.115139
												CHANNELS 6 Xposition Yposition Zposition Xrotation Yrotation Zrotation
												End Site
												{
													OFFSET 190.885437 -115.081749 130.048782
												}
											}
										}
									}
								}
								JOINT mixamorig:LeftHandIndex1
								{
									OFFSET 9.109314 -0.518021 2.259871
									CHANNELS 6 Xposition Yposition Zposition Xrotation Yrotation Zrotation
									JOINT mixamorig:LeftHandIndex2
									{
										OFFSET 3.699989 0.000000 -0.000322
										CHANNELS 6 Xposition Yposition Zposition Xrotation Yrotation Zrotation
										JOINT mixamorig:LeftHandIndex3
										{
											OFFSET 2.850006 0.000000 0.000352
											CHANNELS 6 Xposition Yposition Zposition Xrotation Yrotation Zrotation
											JOINT mixamorig:LeftHandIndex4
											{
												OFFSET 2.774864 -0.000031 -0.000027
												CHANNELS 6 Xposition Yposition Zposition Xrotation Yrotation Zrotation
												End Site
												{
													OFFSET 277.486267 0.000000 -0.009857
												}
											}
										}
									}
								}
								JOINT mixamorig:LeftHandMiddle1
								{
									OFFSET 9.533394 0.000061 0.000044
									CHANNELS 6 Xposition Yposition Zposition Xrotation Yrotation Zrotation
									JOINT mixamorig:LeftHandMiddle2
									{
										OFFSET 3.699989 -0.000015 -0.000231
										CHANNELS 6 Xposition Yposition Zposition Xrotation Yrotation Zrotation
										JOINT mixamorig:LeftHandMiddle3
										{
											OFFSET 2.949997 -0.000015 -0.000059
											CHANNELS 6 Xposition Yposition Zposition Xrotation Yrotation Zrotation
											JOINT mixamorig:LeftHandMiddle4
											{
												OFFSET 2.952896 0.000031 0.000063
												CHANNELS 6 Xposition Yposition Zposition Xrotation Yrotation Zrotation
												End Site
												{
													OFFSET 295.289337 0.000000 0.022810
												}
											}
										}
									}
								}
								JOINT mixamorig:LeftHandRing1
								{
									OFFSET 9.104523 -0.042999 -1.865074
									CHANNELS 6 Xposition Yposition Zposition Xrotation Yrotation Zrotation
									JOINT mixamorig:LeftHandRing2
									{
										OFFSET 3.150009 -0.000031 0.000043
										CHANNELS 6 Xposition Yposition Zposition Xrotation Yrotation Zrotation
										JOINT mixamorig:LeftHandRing3
										{
											OFFSET 2.949982 -0.000015 0.000040
											CHANNELS 6 Xposition Yposition Zposition Xrotation Yrotation Zrotation
											JOINT mixamorig:LeftHandRing4
											{
												OFFSET 2.644348 0.000000 0.000057
												CHANNELS 6 Xposition Yposition Zposition Xrotation Yrotation Zrotation
												End Site
												{
													OFFSET 264.434631 0.000000 0.012105
												}
											}
										}
									}
								}
								JOINT mixamorig:LeftHandPinky1
								{
									OFFSET 8.077789 -0.486847 -3.806259
									CHANNELS 6 Xposition Yposition Zposition Xrotation Yrotation Zrotation
									JOINT mixamorig:LeftHandPinky2
									{
										OFFSET 3.599953 0.000031 0.014727
										CHANNELS 6 Xposition Yposition Zposition Xrotation Yrotation Zrotation
										JOINT mixamorig:LeftHandPinky3
										{
											OFFSET 2.100021 0.000015 0.007705
											CHANNELS 6 Xposition Yposition Zposition Xrotation Yrotation Zrotation
											JOINT mixamorig:LeftHandPinky4
											{
												OFFSET 2.125504 0.000031 0.007517
												CHANNELS 6 Xposition Yposition Zposition Xrotation Yrotation Zrotation
												End Site
												{
													OFFSET 212.550781 0.000000 0.625752
												}
											}
										}
									}
								}
							}
						}
					}
				}
			}
		}
	}
	JOINT mixamorig:RightUpLeg
	{
		OFFSET -8.207787 -6.751648 -1.599560
		CHANNELS 6 Xposition Yposition Zposition Xrotation Yrotation Zrotation
		JOINT mixamorig:RightLeg
		{
			OFFSET -0.000002 -44.370117 0.345942
			CHANNELS 6 Xposition Yposition Zposition Xrotation Yrotation Zrotation
			JOINT mixamorig:RightFoot
			{
				OFFSET 0.000003 -44.423679 -3.043532
				CHANNELS 6 Xposition Yposition Zposition Xrotation Yrotation Zrotation
				JOINT mixamorig:RightToeBase
				{
					OFFSET -0.000002 -8.728671 10.710558
					CHANNELS 6 Xposition Yposition Zposition Xrotation Yrotation Zrotation
					JOINT mixamorig:RightToe_End
					{
						OFFSET -0.000001 -0.000679 9.278119
						CHANNELS 6 Xposition Yposition Zposition Xrotation Yrotation Zrotation
						End Site
						{
							OFFSET 0.000000 -0.067690 927.812134
						}
					}
				}
			}
		}
	}
	JOINT mixamorig:LeftUpLeg
	{
		OFFSET 8.207793 -6.751686 -1.599556
		CHANNELS 6 Xposition Yposition Zposition Xrotation Yrotation Zrotation
		JOINT mixamorig:LeftLeg
		{
			OFFSET -0.000004 -44.370014 0.346954
			CHANNELS 6 Xposition Yposition Zposition Xrotation Yrotation Zrotation
			JOINT mixamorig:LeftFoot
			{
				OFFSET -0.000001 -44.423672 -3.044401
				CHANNELS 6 Xposition Yposition Zposition Xrotation Yrotation Zrotation
				JOINT mixamorig:LeftToeBase
				{
					OFFSET -0.000002 -8.728669 10.710558
					CHANNELS 6 Xposition Yposition Zposition Xrotation Yrotation Zrotation
					JOINT mixamorig:LeftToe_End
					{
						OFFSET -0.000003 -0.000679 9.278133
						CHANNELS 6 Xposition Yposition Zposition Xrotation Yrotation Zrotation
						End Site
						{
							OFFSET 0.000000 -0.068021 927.813477
						}
					}
				}
			}
		}
	}
}
MOTION
Frames: 3
Frame Time: 0.033333
0.000006 104.270477 1.554256 0.000010 0.000003 -0.000113 -0.000005 10.181587 0.131522 0.000001 -0.000003 0.000084 -0.000000 9.893967 -1.470711 0.000001 0.000000 -0.000000 -0.000000 9.220802 -1.370642 0.000000 -0.000000 -0.000000 0.000001 16.740433 -2.049030 0.000000 -0.000000 -0.000000 0.000000 9.617859 1.685014 0.000000 0.000000 0.000000 0.000002 22.037384 7.501101 0.000000 -0.000000 0.000000 -4.569968 11.014880 -2.160881 0.000008 0.000001 -0.000038 -10.592876 -0.524766 -2.231907 76.936439 29.816009 -23.887127 -27.841511 0.000015 0.000547 -49.692317 107.956003 64.978670 -28.328835 0.000006 0.000032 -0.000322 -0.000045 0.000006 -2.464415 -1.573800 2.682336 -45.643330 -163.212138 -4.195118 -3.215274 -1.872587 1.924654 153.600299 31.843592 6.170686 -2.654949 -1.527865 1.513073 145.280856 26.917699 -41.364551 -2.018831 -1.152002 1.108062 -0.000001 -0.000004 0.000004 -9.108395 -0.517563 2.260109 96.071849 17.475491 -19.449906 -3.700071 0.000309 0.001497 91.257987 16.373980 -16.707539 -2.850082 0.000354 -0.000268 92.295971 12.972463 -13.497209 -2.772164 -0.000001 -0.000020 0.000001 -0.000000 0.000000 -9.532576 0.000266 0.000260 96.261783 15.612361 -17.550610 -3.700072 0.000333 0.003981 95.201758 12.661995 -13.751727 -2.950062 0.000344 -0.001792 97.623498 11.305251 -12.898377 -2.946633 0.000001 -0.000153 -0.000000 0.000000 0.000000 -9.103691 -0.042756 -1.864835 98.581678 16.424467 -18.992243 -3.379324 0.000318 -0.000800 96.804599 8.079693 -9.116205 -2.889740 0.000353 0.000643 100.060885 5.524027 -6.641506 -2.638813 -0.000013 0.000937 0.000001 0.000003 0.000001 -8.076748 -0.486390 -3.805984 97.642212 17.911672 -20.252412 -3.600019 0.000273 -0.003477 99.924213 6.829400 -7.710716 -2.099997 0.000322 -0.005452 100.081287 3.496531 -3.918775 -2.115787 -0.000068 -0.003682 0.000001 -0.000002 -0.000008 4.570446 11.014691 -2.160851 -0.000018 0.000010 -0.000021 10.592403 -0.524462 -2.232376 75.705707 -14.276582 11.118021 27.841812 0.000060 -0.000218 98.219971 -71.956439 79.950957 28.328838 -0.000029 0.000020 0.000023 -0.000089 0.000000 2.466166 -1.576142 2.681880 -8.311188 156.926697 -67.342359 3.217804 -1.871735 1.916371 160.961754 -30.394574 5.739098 2.656104 -1.528637 1.514473 143.071249 -26.863933 47.787818 2.020879 -1.154073 1.115144 -0.000004 0.000002 0.000008 9.109374 -0.517890 2.259750 77.981151 -20.367976 16.537401 3.700042 0.000114 -0.000458 73.003063 -20.923665 15.575437 2.850049 0.000121 0.000218 67.718764 -15.615515 10.511948 2.774882 -0.000032 -0.000028 0.000001 -0.000001 -0.000001 9.533451 0.000180 -0.000091 76.572260 -17.979095 14.228661 3.700039 0.000137 -0.000372 78.644219 -16.755441 13.754826 2.950056 0.000139 -0.000193 74.974993 -19.627756 15.117258 2.952881 -0.000045 0.000067 0.000000 0.000000 0.000003 9.104582 -0.042876 -1.865232 76.210834 -16.015107 12.592938 3.150040 0.000173 -0.000091 81.325369 -12.579945 10.819174 2.950032 0.000151 -0.000082 80.171633 -14.158950 11.936170 2.644319 0.000046 0.000059 0.000001 -0.000000 -0.000000 8.077839 -0.486738 -3.806411 71.885637 -16.202506 12.216567 3.600012 0.000158 0.014549 73.515853 -11.971132 9.335259 2.100020 0.000151 0.007535 75.278616 -11.915262 9.577224 2.125489 -0.000015 0.007517 0.000000 0.000002 -0.000000 -8.207786 -6.751667 -1.599560 -0.077001 -0.000003 0.000080 -0.000002 -44.370110 0.345938 0.153719 -0.000000 -0.000000 0.000000 -44.423679 -3.043532 -0.076700 0.000000 -0.000002 -0.000006 -8.728667 10.710559 -0.000009 -0.000000 -0.000000 -0.000001 -0.000679 9.278123 0.000000 -0.000000 -0.000000 8.207792 -6.751710 -1.599556 -0.074518 -0.000003 0.000081 -0.000002 -44.370014 0.346960 0.148822 0.000002 0.000000 -0.000001 -44.423664 -3.044403 -0.074314 0.000000 -0.000002 -0.000004 -8.728671 10.710558 0.000007 -0.000000 -0.000000 0.000000 -0.000680 9.278137 -0.000000 0.000000 -0.000001 
0.000006 104.270477 1.554256 0.000010 0.000003 -0.000113 -0.000005 10.181587 0.131522 0.000001 -0.000003 0.000084 -0.000000 9.893967 -1.470711 0.000001 0.000000 -0.000000 -0.000000 9.220802 -1.370642 0.000000 -0.000000 -0.000000 0.000001 16.740433 -2.049030 0.000000 -0.000000 -0.000000 0.000000 9.617859 1.685014 0.000000 0.000000 0.000000 0.000002 22.037384 7.501101 0.000000 -0.000000 0.000000 -4.569968 11.014880 -2.160881 0.000008 0.000001 -0.000038 -10.592871 -0.524784 -2.231877 76.585825 35.604174 -28.452802 -27.841524 0.000015 0.000559 -47.808237 106.361181 61.255493 -28.328829 0.000010 0.000023 -0.000322 -0.000044 0.000007 -2.464416 -1.573757 2.682301 -51.731409 -165.266085 -20.154659 -3.215264 -1.872544 1.924633 149.063729 32.137775 13.982187 -2.654954 -1.527877 1.513059 144.809668 27.767968 -31.759509 -2.018842 -1.152003 1.108056 -0.000005 0.000001 0.000002 -9.108401 -0.517550 2.260123 98.271198 15.405970 -17.824980 -3.700059 0.000304 0.001497 93.887739 13.889591 -14.829673 -2.850090 0.000357 -0.000267 94.136515 11.805362 -12.682010 -2.772166 -0.000015 -0.000016 -0.000000 -0.000000 -0.000002 -9.532599 0.000271 0.000254 96.101725 14.824751 -16.628290 -3.700072 0.000333 0.003995 97.014361 12.778733 -14.323176 -2.950077 0.000329 -0.001761 100.251550 12.489698 -14.917109 -2.946608 -0.000015 -0.000155 -0.000000 0.000001 -0.000001 -9.103699 -0.042749 -1.864844 96.213234 16.399387 -18.202319 -3.379331 0.000337 -0.000794 96.942480 8.174749 -9.245436 -2.889755 0.000345 0.000670 103.967248 6.629306 -8.532176 -2.638809 0.000001 0.000945 0.000000 -0.000000 -0.000000 -8.076758 -0.486397 -3.805983 96.251511 18.670858 -20.613753 -3.600028 0.000301 -0.003477 98.893401 6.590353 -7.294188 -2.100004 0.000316 -0.005453 100.500906 3.345892 -3.767568 -2.115773 -0.000038 -0.003688 -0.000000 0.000001 -0.000004 4.570446 11.014691 -2.160851 -0.000018 0.000010 -0.000021 10.592403 -0.524467 -2.232363 75.546564 -13.637327 10.588054 27.841816 0.000036 -0.000184 99.619361 -73.533359 82.984490 28.328840 -0.000029 0.000019 0.000022 -0.000089 -0.000000 2.466261 -1.576049 2.681823 7.735209 169.441639 -102.364093 3.217848 -1.871821 1.916401 166.495724 -24.529888 29.049853 2.656116 -1.528682 1.514485 142.966405 -26.088480 59.157587 2.020895 -1.154067 1.115153 0.000003 0.000003 0.000004 9.109383 -0.517893 2.259746 76.846820 -23.137191 18.435601 3.700037 0.000140 -0.000455 75.124732 -15.407915 11.892308 2.850042 0.000153 0.000199 74.242852 -12.159776 9.217292 2.774890 -0.000029 -0.000028 -0.000000 -0.000002 -0.000001 9.533461 0.000167 -0.000079 75.921562 -21.243108 16.640530 3.700063 0.000144 -0.000388 78.110576 -13.209665 10.732104 2.950056 0.000135 -0.000191 77.446962 -13.307670 10.689948 2.952874 -0.000013 0.000058 0.000000 -0.000000 -0.000000 9.104593 -0.042881 -1.865210 77.306936 -20.339824 16.331397 3.150046 0.000157 -0.000106 79.755832 -13.227897 11.067952 2.950015 0.000157 -0.000093 79.883024 -11.392303 9.550342 2.644310 0.000031 0.000056 0.000000 0.000002 -0.000000 8.077849 -0.486752 -3.806410 72.330337 -20.818365 15.752438 3.599992 0.000140 0.014580 71.688716 -16.220243 12.141549 2.100040 0.000161 0.007546 74.545661 -12.737417 10.084493 2.125492 -0.000015 0.007514 -0.000002 0.000001 0.000001 -8.207786 -6.751667 -1.599560 -0.077001 -0.000003 0.000080 -0.000002 -44.370110 0.345938 0.153719 -0.000000 -0.000000 0.000000 -44.423679 -3.043532 -0.076700 0.000000 -0.000002 -0.000006 -8.728667 10.710559 -0.000009 -0.000000 -0.000000 -0.000001 -0.000679 9.278123 0.000000 -0.000000 -0.000000 8.207792 -6.751710 -1.599556 -0.074518 -0.000003 0.000081 -0.000002 -44.370014 0.346960 0.148822 0.000002 0.000000 -0.000001 -44.423664 -3.044403 -0.074314 0.000000 -0.000002 -0.000004 -8.728671 10.710558 0.000007 -0.000000 -0.000000 0.000000 -0.000680 9.278137 -0.000000 0.000000 -0.000001 
0.000006 104.270477 1.554256 0.000010 0.000003 -0.000113 -0.000005 10.181587 0.131522 0.000001 -0.000003 0.000084 -0.000000 9.893967 -1.470711 0.000001 0.000000 -0.000000 -0.000000 9.220802 -1.370642 0.000000 -0.000000 -0.000000 0.000001 16.740433 -2.049030 0.000000 -0.000000 -0.000000 0.000000 9.617859 1.685014 0.000000 0.000000 0.000000 0.000002 22.037384 7.501101 0.000000 -0.000000 0.000000 -4.569968 11.014880 -2.160881 0.000008 0.000001 -0.000038 -10.592846 -0.524813 -2.231821 76.275393 44.655722 -35.745406 -27.841516 -0.000004 0.000551 -46.465767 103.289508 56.958402 -28.328835 0.000023 0.000028 -0.000321 -0.000042 0.000009 -2.464437 -1.573709 2.682282 -54.044148 -172.194902 -28.539802 -3.215289 -1.872593 1.924657 151.114985 30.001111 -4.728727 -2.654953 -1.527879 1.513067 141.836282 28.049213 -35.099997 -2.018830 -1.152013 1.108060 -0.000003 -0.000003 0.000000 -9.108375 -0.517554 2.260131 99.023051 16.159942 -18.936647 -3.700085 0.000313 0.001509 94.854512 14.281600 -15.505291 -2.850074 0.000364 -0.000269 94.276725 11.822942 -12.731832 -2.772160 -0.000001 -0.000024 0.000002 -0.000000 -0.000001 -9.532578 0.000278 0.000251 95.963058 15.023705 -16.808681 -3.700071 0.000331 0.003980 96.379734 12.551710 -13.913169 -2.950062 0.000337 -0.001793 98.203278 12.108742 -13.954050 -2.946625 -0.000000 -0.000157 -0.000000 -0.000000 0.000000 -9.103689 -0.042745 -1.864848 95.868740 15.720717 -17.346059 -3.379321 0.000331 -0.000789 96.368341 8.776912 -9.825373 -2.889751 0.000350 0.000666 101.617744 7.087681 -8.743507 -2.638828 -0.000016 0.000938 -0.000000 0.000002 0.000001 -8.076743 -0.486379 -3.805969 94.668403 18.128367 -19.475934 -3.600039 0.000284 -0.003480 96.914107 7.994228 -8.620218 -2.100000 0.000334 -0.005448 97.982383 4.345920 -4.749544 -2.115769 -0.000050 -0.003679 0.000001 -0.000003 -0.000002 4.570446 11.014691 -2.160851 -0.000018 0.000010 -0.000021 10.592463 -0.524459 -2.232415 75.330600 -33.230615 25.943109 27.841816 0.000048 -0.000190 100.661532 -76.185289 86.774896 28.328827 -0.000028 0.000028 0.000021 -0.000088 -0.000001 2.466264 -1.576058 2.681829 6.985256 168.957884 -100.968323 3.217863 -1.871840 1.916403 163.245168 -21.911331 41.100134 2.656110 -1.528688 1.514503 141.096695 -26.917123 57.368603 2.020894 -1.154051 1.115131 -0.000000 0.000002 0.000004 9.109391 -0.517900 2.259748 77.013955 -22.884047 18.285574 3.700033 0.000138 -0.000468 76.069354 -15.174602 11.911150 2.850033 0.000176 0.000194 75.881913 -12.095311 9.442550 2.774894 -0.000047 -0.000026 0.000001 0.000000 0.000000 9.533470 0.000167 -0.000077 76.093847 -21.110950 16.586657 3.700036 0.000159 -0.000364 78.701094 -13.281229 10.903870 2.950038 0.000152 -0.000200 78.315222 -12.747591 10.397833 2.952858 -0.000015 0.000060 -0.000003 -0.000001 -0.000000 9.104593 -0.042884 -1.865209 77.851582 -20.360579 16.505900 3.150036 0.000172 -0.000088 79.591259 -13.953172 11.642683 2.950023 0.000145 -0.000104 79.475255 -11.132140 9.264898 2.644330 0.000031 0.000056 -0.000001 -0.000001 0.000001 8.077856 -0.486743 -3.806396 73.470542 -21.335904 16.473137 3.600004 0.000158 0.014587 72.102755 -17.458172 13.148926 2.100066 0.000157 0.007553 74.564779 -12.954594 10.255168 2.125512 -0.000000 0.007513 0.000000 0.000000 -0.000000 -8.207786 -6.751667 -1.599560 -0.077001 -0.000003 0.000080 -0.000002 -44.370110 0.345938 0.153719 -0.000000 -0.000000 0.000000 -44.423679 -3.043532 -0.076700 0.000000 -0.000002 -0.000006 -8.728667 10.710559 -0.000009 -0.000000 -0.000000 -0.000001 -0.000679 9.278123 0.000000 -0.000000 -0.000000 8.207792 -6.751710 -1.599556 -0.074518 -0.000003 0.000081 -0.000002 -44.370014 0.346960 0.148822 0.000002 0.000000 -0.000001 -44.423664 -3.044403 -0.074314 0.000000 -0.000002 -0.000004 -8.728671 10.710558 0.000007 -0.000000 -0.000000 0.000000 -0.000680 9.278137 -0.000000 0.000000 -0.000001 
